<svg xmlns="http://www.w3.org/2000/svg" viewBox="0 0 17 15" width="17" height="15" opacity="0.3">
	<style>
		tspan { white-space:pre }
		.shp0 { fill: #ffffff } 
	</style>
	<g id="W6EeEF_1_">
		<g id="Layer">
			<path id="Layer" class="shp0" d="M10.95 0.14C12.63 -0.35 13.93 0.41 14.53 1.32C15.2 1.09 15.86 0.84 16.54 0.61C16.53 1.48 16.02 2.13 15.68 2.38C16.37 2.55 16.98 1.89 16.98 1.89C16.82 2.89 15.98 3.68 15.42 3.92C15.19 10.67 12.25 15.13 5.34 15C4.82 15 5.42 15 4.9 15C4.49 15 0.73 14.54 0 13.11C2.27 13.31 3.89 12.69 4.69 11.93C3.73 11.63 2.01 11.46 1.71 8.98C2.06 9.09 2.28 9.21 2.9 9.1C1.71 8.25 0.37 7.53 0.45 5.33C0.73 5.66 1.51 5.87 1.79 5.8C1.08 5.56 -0.18 2.44 0.89 0.85C2.71 2.7 4.63 4.46 8.05 4.62C8.25 2.33 9.18 0.79 10.95 0.14Z" />
		</g>
	</g>
</svg>
