<svg xmlns="http://www.w3.org/2000/svg" viewBox="0 0 75 72" width="75" height="72">
	<style>
		tspan { white-space:pre }
		.shp0 { fill: #81b3d2 } 
	</style>
	<g id="Layer">
		<path id="Layer" fill-rule="evenodd" class="shp0" d="M29.66 41.21L45.66 41.21L45.66 65.03L29.66 65.03L29.66 41.21ZM32.59 62.11L42.72 62.11L42.72 44.13L32.59 44.13L32.59 62.11Z" fill="#81b3d2" />
		<path id="Layer" fill-rule="evenodd" class="shp0" d="M64.94 31.46L64.94 69.08L70 69.08L70 72L6.12 72L6.12 69.08L10.06 69.08L10.06 31.46L2.23 39.25L0.15 37.19L37.5 0L51.13 13.57L51.13 0L64.94 0L64.94 27.32L74.85 37.19L72.77 39.25L64.94 31.46ZM62 69.08L62 28.53L37.5 4.15L13 28.53L13 69.08L62 69.08ZM62 2.92L54.06 2.92L54.06 16.49L62 24.39L62 2.92Z" fill="#81b3d2" />
		<path id="Layer" fill-rule="evenodd" class="shp0" d="M37.66 19.37C41.94 19.37 45.41 22.82 45.41 27.08C45.41 31.34 41.94 34.79 37.66 34.79C33.38 34.79 29.91 31.34 29.91 27.08C29.91 22.82 33.38 19.37 37.66 19.37ZM32.69 27.08C32.69 29.81 34.91 32.03 37.66 32.03C40.4 32.03 42.63 29.81 42.63 27.08C42.63 24.35 40.4 22.14 37.66 22.14C34.91 22.14 32.69 24.35 32.69 27.08Z" fill="#81b3d2" />
		<path id="Layer" class="shp0" d="M17.06 41.21L20.06 41.21L20.06 45.13L17.06 45.13L17.06 41.21Z" fill="#81b3d2" />
		<path id="Layer" class="shp0" d="M23 41.21L26 41.21L26 45.13L23 45.13L23 41.21Z" fill="#81b3d2" />
		<path id="Layer" class="shp0" d="M17.06 47.18L20.06 47.18L20.06 51.1L17.06 51.1L17.06 47.18Z" fill="#81b3d2" />
		<path id="Layer" class="shp0" d="M23 47.18L26 47.18L26 51.1L23 51.1L23 47.18Z" fill="#81b3d2" />
		<path id="Layer" class="shp0" d="M49 41.21L52 41.21L52 45.13L49 45.13L49 41.21Z" fill="#81b3d2" />
		<path id="Layer" class="shp0" d="M54.94 41.21L57.94 41.21L57.94 45.13L54.94 45.13L54.94 41.21Z" fill="#81b3d2" />
		<path id="Layer" class="shp0" d="M49 47.18L52 47.18L52 51.1L49 51.1L49 47.18Z" fill="#81b3d2" />
		<path id="Layer" class="shp0" d="M54.94 47.18L57.94 47.18L57.94 51.1L54.94 51.1L54.94 47.18Z" fill="#81b3d2" />
	</g>
</svg>
