<svg xmlns="http://www.w3.org/2000/svg" viewBox="0 0 64 76" width="64" height="76">
	<style>
		tspan { white-space:pre }
		.shp0 { fill: #81b3d2 } 
	</style>
	<path id="Layer" fill-rule="evenodd" class="shp0" d="M63.98 25.37L63.98 36.69C63.98 38.27 62.68 39.56 61.1 39.56L60.99 39.56L60.99 76L3.15 76L3.15 39.56L2.88 39.56C1.29 39.56 0 38.27 0 36.69L0 25.37C0 23.79 1.29 22.5 2.88 22.5L25.29 22.5C20.4 19.79 12.97 16.39 10.72 11.01C8.37 5.41 14.15 0.39 18.17 0.03C20.84 -0.2 22.68 0.92 23.94 2.06C28.29 5.98 30.15 13.73 32.07 19.8C33.58 13.8 35.15 5.5 40.72 3.41C45.03 1.79 49.56 4.85 50.72 8.82C51.23 11.25 50.13 15.6 36.31 22.5L61.1 22.5C62.68 22.5 63.98 23.79 63.98 25.37ZM35.3 19.63C37.65 18.22 40.06 17.32 42.58 15.57C44.27 14.41 48.06 11.91 47.67 9.15C47.39 7.24 44.52 5.63 42.41 5.94C37.84 6.62 36.18 15.94 35.3 19.63ZM29.02 20.81C27.62 15.36 25.76 7.63 21.9 4.26C18.83 1.57 13.2 4.55 13.09 8.14C12.99 11.48 17.31 14.43 19.53 15.91C22.7 18.02 25.77 19.27 29.02 20.81ZM25.5 73.03L25.5 39.56L6.14 39.56L6.14 73.03L25.5 73.03ZM25.5 25.54L3.05 25.54L3.05 36.52L25.5 36.52L25.5 25.54ZM35.66 25.54L28.49 25.54L28.49 73.03L35.66 73.03L35.66 25.54ZM58.01 73.03L58.01 39.56L38.64 39.56L38.64 73.03L58.01 73.03ZM60.93 25.54L38.64 25.54L38.64 36.52L60.93 36.52L60.93 25.54Z" fill="#81b3d2" />
</svg>
