<svg xmlns="http://www.w3.org/2000/svg" viewBox="0 0 74 70" width="74" height="70">
	<style>
		tspan { white-space:pre }
		.shp0 { fill: #81b3d2 } 
	</style>
	<g id="Layer">
		<path id="Layer" fill-rule="evenodd" class="shp0" d="M73.99 51.02L73.99 54.53C73.99 56.9 72.13 58.84 69.85 58.84L68.92 58.84L68.92 59.89C68.92 65.43 64.58 69.96 59.27 69.96L14.63 69.96C9.32 69.96 4.98 65.43 4.98 59.89L4.98 58.84L4.05 58.84C1.78 58.84 -0.08 56.9 -0.08 54.53L-0.08 51.02C-0.08 48.65 1.78 46.71 4.05 46.71L69.85 46.71C72.13 46.71 73.99 48.65 73.99 51.02ZM66 59.89L66 58.84L7.9 58.84L7.9 59.89C7.9 63.76 10.92 66.91 14.63 66.91L59.28 66.91C62.99 66.91 66.01 63.77 66.01 59.89L66 59.89ZM71.07 54.53L71.07 51.02C71.07 50.33 70.51 49.75 69.85 49.75L4.05 49.75C3.39 49.75 2.83 50.34 2.83 51.02L2.83 54.53C2.83 55.22 3.39 55.8 4.05 55.8L69.85 55.8C70.51 55.8 71.07 55.22 71.07 54.53Z" fill="#81b3d2" />
		<path id="Layer" class="shp0" d="M15.63 38.41L20.96 42.47L26.28 38.41L31.61 42.47L36.94 38.41L42.27 42.47L47.6 38.41L52.92 42.47L58.25 38.41L63.59 42.46L69.78 37.75L68.06 35.29L63.59 38.7L58.25 34.64L52.92 38.7L47.6 34.64L42.27 38.7L36.94 34.64L31.61 38.7L26.28 34.64L20.96 38.7L15.63 34.64L10.31 38.7L5.84 35.29L4.12 37.75L10.31 42.47L15.63 38.41Z" fill="#81b3d2" />
		<path id="Layer" fill-rule="evenodd" class="shp0" d="M5.05 31.54C5.01 30.93 4.98 30.3 4.98 29.67C4.98 29.28 5 28.89 5.01 28.5C5.68 12.66 19.72 0 36.95 0C54.19 0 68.23 12.66 68.89 28.5C68.91 28.89 68.92 29.28 68.92 29.67C68.92 30.3 68.9 30.93 68.85 31.54L5.05 31.54ZM7.93 28.5L65.97 28.5C65.3 14.36 52.54 3.04 36.95 3.04C21.36 3.04 8.6 14.36 7.93 28.5Z" fill="#81b3d2" />
		<path id="Layer" class="shp0" d="M36.95 17.29C35.88 17.29 35.01 16.38 35.01 15.26C35.01 14.14 35.88 13.23 36.95 13.23C38.03 13.23 38.9 14.14 38.9 15.26C38.9 16.38 38.03 17.29 36.95 17.29Z" fill="#81b3d2" />
		<path id="Layer" class="shp0" d="M29.17 12.26C28.1 12.26 27.23 11.35 27.23 10.23C27.23 9.11 28.1 8.2 29.17 8.2C30.25 8.2 31.12 9.11 31.12 10.23C31.12 11.35 30.25 12.26 29.17 12.26Z" fill="#81b3d2" />
		<path id="Layer" class="shp0" d="M44.73 12.26C43.66 12.26 42.79 11.35 42.79 10.23C42.79 9.11 43.66 8.2 44.73 8.2C45.81 8.2 46.68 9.11 46.68 10.23C46.68 11.35 45.81 12.26 44.73 12.26Z" fill="#81b3d2" />
	</g>
</svg>
