<svg xmlns="http://www.w3.org/2000/svg" viewBox="0 0 113 39" width="113" height="39">
	<style>
		tspan { white-space:pre }
		.shp0 { fill: #000000 } 
	</style>
	<path id="Layer" fill-rule="evenodd" class="shp0" d="M46.99 28.21C47.04 28.2 47.09 28.19 47.13 28.19C47.18 28.18 47.23 28.17 47.28 28.15C47.33 28.14 47.37 28.13 47.42 28.11L47.42 29.51C47.32 29.55 47.22 29.58 47.12 29.61C47.02 29.64 46.91 29.66 46.81 29.68C46.71 29.7 46.6 29.71 46.5 29.72C46.39 29.73 46.29 29.73 46.18 29.73C46 29.75 45.82 29.74 45.65 29.7C45.47 29.66 45.3 29.6 45.15 29.51C44.99 29.42 44.85 29.31 44.73 29.17C44.61 29.04 44.51 28.89 44.43 28.73C44.2 28.92 43.95 29.08 43.69 29.23C43.43 29.37 43.16 29.49 42.88 29.59C42.6 29.68 42.31 29.75 42.02 29.8C41.72 29.85 41.43 29.87 41.13 29.86C39.54 29.86 38.07 28.99 38.07 27.18C38.07 24.94 40.15 24.25 41.97 24.25C42.16 24.25 42.35 24.26 42.54 24.27C42.74 24.28 42.93 24.3 43.12 24.32C43.31 24.35 43.5 24.37 43.69 24.4C43.87 24.43 44.06 24.47 44.25 24.51L44.25 24.2C44.25 23.11 43.45 22.34 41.95 22.34C41.68 22.34 41.41 22.35 41.14 22.38C40.87 22.41 40.6 22.45 40.34 22.51C40.08 22.57 39.81 22.64 39.56 22.72C39.3 22.8 39.05 22.9 38.8 23.01L38.8 21.22C39.07 21.13 39.34 21.05 39.62 20.98C39.89 20.9 40.17 20.84 40.45 20.8C40.73 20.75 41.01 20.71 41.3 20.68C41.58 20.66 41.87 20.64 42.15 20.64C44.63 20.64 46.15 21.82 46.15 24.47L46.15 27.61C46.14 27.7 46.15 27.79 46.19 27.87C46.22 27.96 46.27 28.03 46.34 28.09C46.41 28.15 46.49 28.19 46.57 28.22C46.66 28.24 46.75 28.24 46.84 28.22C46.89 28.22 46.94 28.21 46.99 28.21ZM40.08 27.04C40.08 27.04 40.08 27.03 40.08 27.03C40.08 27.03 40.08 27.03 40.08 27.03L40.08 27.04ZM40.24 27.59C40.34 27.76 40.46 27.91 40.62 28.03C40.77 28.16 40.95 28.24 41.14 28.29C41.33 28.34 41.53 28.35 41.72 28.32C41.95 28.32 42.19 28.3 42.41 28.26C42.64 28.22 42.87 28.16 43.08 28.07C43.3 27.99 43.51 27.88 43.7 27.75C43.9 27.63 44.08 27.48 44.25 27.32L44.25 25.81C44.09 25.78 43.94 25.75 43.78 25.72C43.62 25.7 43.46 25.67 43.31 25.66C43.15 25.64 42.99 25.62 42.83 25.61C42.67 25.6 42.51 25.59 42.35 25.59C41.25 25.6 40.09 25.94 40.08 27.03C40.1 27.23 40.15 27.42 40.24 27.59Z" />
	<path id="Layer" class="shp0" d="M53.06 20.62C53.29 20.61 53.53 20.62 53.76 20.65C54 20.68 54.23 20.72 54.45 20.77C54.68 20.83 54.91 20.9 55.12 20.99C55.34 21.07 55.56 21.18 55.76 21.29L55.76 23.08C55.58 22.96 55.4 22.85 55.2 22.76C55.01 22.67 54.81 22.59 54.61 22.53C54.4 22.47 54.19 22.42 53.98 22.39C53.77 22.36 53.55 22.35 53.34 22.35C52.53 22.28 51.74 22.56 51.14 23.1C50.55 23.65 50.21 24.42 50.21 25.23C50.21 26.04 50.55 26.81 51.14 27.36C51.74 27.9 52.53 28.18 53.34 28.11C53.56 28.11 53.78 28.09 54 28.07C54.22 28.04 54.44 27.99 54.66 27.94C54.87 27.88 55.08 27.81 55.29 27.73C55.5 27.64 55.7 27.55 55.89 27.44L55.89 29.24C55.66 29.34 55.43 29.44 55.2 29.51C54.96 29.59 54.72 29.65 54.47 29.71C54.23 29.76 53.98 29.79 53.74 29.81C53.49 29.84 53.24 29.85 52.99 29.84C52.37 29.88 51.76 29.79 51.18 29.58C50.6 29.37 50.07 29.04 49.62 28.62C49.18 28.19 48.83 27.67 48.6 27.1C48.36 26.53 48.25 25.92 48.27 25.3C48.25 24.67 48.36 24.04 48.6 23.46C48.83 22.87 49.18 22.35 49.63 21.91C50.09 21.47 50.62 21.12 51.21 20.9C51.8 20.68 52.43 20.58 53.06 20.62L53.06 20.62Z" />
	<path id="Layer" fill-rule="evenodd" class="shp0" d="M65.99 28.21C66.04 28.2 66.09 28.19 66.13 28.19C66.18 28.18 66.23 28.17 66.28 28.15C66.33 28.14 66.37 28.13 66.42 28.11L66.42 29.51C66.32 29.55 66.22 29.58 66.12 29.61C66.02 29.64 65.91 29.66 65.81 29.68C65.71 29.7 65.6 29.71 65.5 29.72C65.39 29.73 65.29 29.73 65.18 29.73C65 29.75 64.82 29.74 64.65 29.7C64.47 29.66 64.3 29.6 64.15 29.51C63.99 29.42 63.85 29.31 63.73 29.17C63.61 29.04 63.51 28.89 63.43 28.73C63.2 28.92 62.95 29.08 62.69 29.23C62.43 29.37 62.16 29.49 61.88 29.59C61.6 29.68 61.31 29.75 61.02 29.8C60.72 29.85 60.43 29.87 60.13 29.86C58.54 29.86 57.07 28.99 57.07 27.18C57.07 24.94 59.15 24.25 60.97 24.25C61.16 24.25 61.35 24.26 61.54 24.27C61.74 24.28 61.93 24.3 62.12 24.32C62.31 24.35 62.5 24.37 62.69 24.4C62.87 24.43 63.06 24.47 63.25 24.51L63.25 24.2C63.25 23.11 62.45 22.34 60.95 22.34C60.68 22.34 60.41 22.35 60.14 22.38C59.87 22.41 59.6 22.45 59.34 22.51C59.08 22.57 58.81 22.64 58.56 22.72C58.3 22.8 58.05 22.9 57.8 23.01L57.8 21.22C58.07 21.13 58.34 21.05 58.62 20.98C58.89 20.9 59.17 20.84 59.45 20.8C59.73 20.75 60.01 20.71 60.3 20.68C60.58 20.66 60.87 20.64 61.15 20.64C63.63 20.64 65.15 21.82 65.15 24.47L65.15 27.61C65.14 27.7 65.15 27.79 65.19 27.87C65.22 27.96 65.27 28.03 65.34 28.09C65.41 28.15 65.49 28.19 65.57 28.22C65.66 28.24 65.75 28.24 65.84 28.22C65.89 28.22 65.94 28.21 65.99 28.21ZM59.08 27.04C59.08 27.04 59.08 27.03 59.08 27.03C59.08 27.03 59.08 27.03 59.08 27.03L59.08 27.04ZM59.24 27.59C59.34 27.76 59.46 27.91 59.62 28.03C59.77 28.16 59.95 28.24 60.14 28.29C60.33 28.34 60.53 28.35 60.72 28.32C60.95 28.32 61.19 28.3 61.41 28.26C61.64 28.22 61.87 28.16 62.08 28.07C62.3 27.99 62.51 27.88 62.7 27.75C62.9 27.63 63.08 27.48 63.25 27.32L63.25 25.81C63.09 25.78 62.94 25.75 62.78 25.72C62.62 25.7 62.46 25.67 62.31 25.66C62.15 25.64 61.99 25.62 61.83 25.61C61.67 25.6 61.51 25.59 61.35 25.59C60.24 25.6 59.09 25.94 59.08 27.03C59.1 27.23 59.15 27.42 59.24 27.59Z" />
	<path id="Layer" fill-rule="evenodd" class="shp0" d="M76.67 16.85L76.67 29.61L74.91 29.61L74.91 28.22C74.72 28.48 74.49 28.71 74.24 28.92C73.99 29.12 73.72 29.29 73.43 29.44C73.14 29.58 72.83 29.68 72.52 29.75C72.2 29.82 71.88 29.85 71.56 29.84C70.39 29.76 69.29 29.24 68.49 28.39C67.69 27.53 67.24 26.4 67.24 25.23C67.24 24.06 67.69 22.93 68.49 22.07C69.29 21.22 70.39 20.7 71.56 20.62C71.86 20.61 72.15 20.63 72.44 20.69C72.73 20.74 73.02 20.83 73.29 20.95C73.56 21.07 73.82 21.22 74.06 21.39C74.3 21.57 74.52 21.77 74.71 21.99L74.71 16.85L76.67 16.85ZM69.86 23.18C69.32 23.72 69.01 24.46 69.01 25.23C69.01 26 69.32 26.74 69.86 27.28C70.4 27.82 71.14 28.13 71.91 28.13C72.21 28.13 72.5 28.09 72.78 28.01C73.07 27.92 73.34 27.8 73.58 27.63C73.83 27.47 74.05 27.27 74.24 27.05C74.43 26.82 74.59 26.56 74.7 26.29L74.7 24.16C74.58 23.89 74.42 23.64 74.23 23.41C74.04 23.19 73.82 22.99 73.58 22.83C73.33 22.67 73.06 22.54 72.78 22.46C72.5 22.37 72.2 22.33 71.91 22.33C71.14 22.33 70.4 22.64 69.86 23.18Z" />
	<path id="Layer" fill-rule="evenodd" class="shp0" d="M82.99 20.62C86.47 20.62 87.67 23.43 87.11 25.96L80.53 25.96C80.75 27.53 82.28 28.18 83.88 28.18C84.12 28.18 84.36 28.17 84.59 28.14C84.83 28.12 85.07 28.08 85.3 28.03C85.53 27.97 85.76 27.91 85.99 27.83C86.21 27.75 86.43 27.66 86.65 27.56L86.65 29.24C86.4 29.35 86.15 29.44 85.89 29.52C85.64 29.59 85.38 29.66 85.11 29.71C84.85 29.76 84.58 29.8 84.31 29.82C84.05 29.84 83.78 29.85 83.51 29.84C80.83 29.84 78.51 28.31 78.51 25.23C78.48 24.63 78.57 24.03 78.79 23.46C79 22.9 79.33 22.38 79.75 21.95C80.17 21.52 80.67 21.18 81.23 20.95C81.79 20.72 82.39 20.61 82.99 20.62ZM82.14 22.36C81.84 22.46 81.56 22.62 81.32 22.83C81.08 23.04 80.88 23.3 80.75 23.58C80.61 23.87 80.53 24.18 80.51 24.5L85.36 24.5C85.39 24.19 85.35 23.88 85.25 23.59C85.15 23.3 84.98 23.04 84.76 22.82C84.54 22.61 84.28 22.44 83.99 22.34C83.7 22.24 83.39 22.21 83.08 22.24C82.76 22.22 82.44 22.26 82.14 22.36Z" />
	<path id="Layer" class="shp0" d="M89.1 29.61L89.1 20.86L90.83 20.86L90.83 21.95C91.01 21.74 91.22 21.56 91.44 21.4C91.66 21.23 91.9 21.09 92.15 20.98C92.4 20.87 92.66 20.78 92.93 20.72C93.2 20.66 93.47 20.62 93.75 20.62C94.02 20.6 94.29 20.62 94.55 20.68C94.81 20.73 95.07 20.82 95.31 20.94C95.55 21.07 95.77 21.22 95.97 21.4C96.16 21.58 96.34 21.79 96.48 22.02C96.67 21.81 96.89 21.62 97.12 21.45C97.36 21.28 97.61 21.13 97.87 21.01C98.13 20.89 98.4 20.8 98.68 20.73C98.97 20.67 99.25 20.63 99.54 20.62C100 20.6 100.45 20.68 100.88 20.86C101.3 21.03 101.69 21.29 102 21.63C102.31 21.96 102.55 22.36 102.7 22.79C102.85 23.22 102.9 23.68 102.86 24.14L102.86 29.61L100.86 29.61L100.86 24.2C100.88 23.96 100.86 23.72 100.78 23.49C100.7 23.27 100.58 23.06 100.42 22.88C100.25 22.71 100.05 22.57 99.83 22.48C99.61 22.39 99.37 22.35 99.13 22.36C98.92 22.37 98.71 22.41 98.5 22.47C98.3 22.53 98.1 22.61 97.92 22.71C97.73 22.81 97.55 22.93 97.39 23.07C97.23 23.21 97.09 23.37 96.96 23.54C96.96 23.74 96.96 23.94 96.96 24.14L96.96 29.61L94.96 29.61L94.96 24.2C94.98 23.96 94.96 23.72 94.88 23.49C94.8 23.27 94.68 23.06 94.52 22.88C94.35 22.71 94.15 22.57 93.93 22.48C93.71 22.39 93.47 22.35 93.23 22.36C93 22.38 92.77 22.42 92.55 22.49C92.33 22.56 92.12 22.66 91.92 22.77C91.72 22.89 91.53 23.03 91.36 23.18C91.19 23.34 91.04 23.52 90.91 23.71L90.91 29.62L88.91 29.62L89.1 29.61Z" />
	<path id="Layer" class="shp0" d="M111.47 20.86L113.47 20.86L109.37 30.79C108.42 33.07 107.18 33.79 105.85 33.79C105.75 33.79 105.66 33.78 105.56 33.78C105.46 33.77 105.37 33.76 105.27 33.75C105.17 33.74 105.08 33.72 104.98 33.7C104.89 33.68 104.79 33.66 104.7 33.64L104.7 31.98C104.77 32 104.84 32.02 104.92 32.04C104.99 32.05 105.07 32.07 105.14 32.08C105.21 32.09 105.29 32.1 105.36 32.1C105.44 32.11 105.51 32.11 105.59 32.11C106.54 32.11 107.25 31.44 107.76 30.11L107.94 29.67L103.78 20.85L105.91 20.85L108.91 27.45L111.47 20.86Z" />
	<path id="Layer" class="shp0" d="M40.66 1.53L40.66 6.53C40.84 6.34 41.05 6.17 41.26 6.02C41.48 5.88 41.71 5.75 41.96 5.65C42.2 5.54 42.45 5.47 42.71 5.41C42.96 5.36 43.23 5.33 43.49 5.33C43.97 5.3 44.45 5.37 44.9 5.54C45.34 5.71 45.75 5.97 46.09 6.31C46.43 6.65 46.7 7.05 46.87 7.5C47.05 7.94 47.12 8.42 47.1 8.9L47.1 14.31L45.1 14.31L45.1 9.15C45.13 8.88 45.1 8.6 45.01 8.34C44.92 8.08 44.78 7.84 44.59 7.64C44.4 7.44 44.16 7.28 43.91 7.18C43.65 7.08 43.38 7.03 43.1 7.05C42.85 7.06 42.61 7.11 42.37 7.18C42.14 7.25 41.91 7.35 41.7 7.48C41.49 7.61 41.29 7.76 41.12 7.93C40.94 8.11 40.79 8.3 40.66 8.51L40.66 14.31L38.66 14.31L38.66 1.53L40.66 1.53Z" />
	<path id="Layer" class="shp0" d="M52.43 2.42L52.43 5.54L55.6 5.54L55.6 7.25L52.43 7.25L52.43 11.25C52.43 12.4 52.96 12.78 54.09 12.78C54.24 12.78 54.39 12.77 54.54 12.76C54.69 12.74 54.84 12.72 54.99 12.69C55.14 12.66 55.29 12.62 55.43 12.58C55.58 12.54 55.72 12.49 55.86 12.43L55.86 14.11C55.67 14.17 55.48 14.23 55.29 14.28C55.09 14.33 54.9 14.37 54.7 14.4C54.5 14.43 54.31 14.45 54.11 14.47C53.91 14.48 53.71 14.49 53.51 14.49C53.11 14.54 52.71 14.5 52.34 14.37C51.96 14.25 51.61 14.04 51.32 13.76C51.04 13.49 50.82 13.15 50.67 12.78C50.53 12.41 50.48 12.01 50.51 11.61L50.51 7.23L48.91 7.23L48.91 5.52L50.48 5.52L50.48 2.88L52.43 2.42Z" />
	<path id="Layer" class="shp0" d="M58.1 14.29L58.1 5.54L59.83 5.54L59.83 6.63C60.01 6.42 60.22 6.24 60.44 6.08C60.66 5.91 60.9 5.77 61.15 5.66C61.4 5.55 61.66 5.46 61.93 5.4C62.2 5.34 62.47 5.3 62.75 5.3C63.02 5.28 63.29 5.3 63.55 5.36C63.81 5.41 64.07 5.5 64.31 5.62C64.55 5.75 64.77 5.9 64.97 6.08C65.16 6.26 65.34 6.47 65.48 6.7C65.67 6.49 65.89 6.3 66.12 6.13C66.36 5.96 66.61 5.81 66.87 5.69C67.13 5.57 67.4 5.48 67.68 5.41C67.97 5.35 68.25 5.31 68.54 5.3C69 5.28 69.45 5.36 69.88 5.54C70.3 5.71 70.69 5.97 71 6.31C71.31 6.64 71.55 7.04 71.7 7.47C71.85 7.9 71.9 8.36 71.86 8.82L71.86 14.29L69.86 14.29L69.86 8.88C69.88 8.64 69.86 8.4 69.78 8.17C69.7 7.95 69.58 7.74 69.42 7.56C69.25 7.39 69.05 7.25 68.83 7.16C68.61 7.07 68.37 7.03 68.13 7.04C67.92 7.05 67.71 7.09 67.5 7.15C67.3 7.21 67.1 7.29 66.92 7.39C66.73 7.49 66.55 7.61 66.39 7.75C66.23 7.89 66.09 8.05 65.96 8.22C65.96 8.42 65.96 8.62 65.96 8.82L65.96 14.29L63.96 14.29L63.96 8.88C63.98 8.64 63.96 8.4 63.88 8.17C63.8 7.95 63.68 7.74 63.52 7.56C63.35 7.39 63.15 7.25 62.93 7.16C62.71 7.07 62.47 7.03 62.23 7.04C62 7.06 61.77 7.1 61.55 7.17C61.33 7.24 61.12 7.34 60.92 7.45C60.72 7.57 60.53 7.71 60.36 7.86C60.19 8.02 60.04 8.2 59.91 8.39L59.91 14.3L57.91 14.3L58.1 14.29Z" />
	<path id="Layer" class="shp0" d="M74.72 1.52L76.67 1.52L76.67 14.28L74.72 14.28L74.72 1.52Z" />
	<path id="Layer" fill-rule="evenodd" class="shp0" d="M30.56 1.62L30.56 29.62L15.28 38.71L0 29.62L0 1.62L15.28 0.02L15.44 0.02L30.56 1.62ZM28.56 16.77L24.46 19.22L24.46 25.13L15.27 30.63L6.16 25.16L6.16 23.78L15.26 29.2L15.26 27.74L6.15 22.27L6.15 20.89L15.22 26.29L15.22 24.86L2 16.99L2 28.47L15.28 36.37L28.56 28.47L28.56 16.77ZM15.23 7.46L2.06 15.38L15.22 23.2L17.47 21.85L15.26 20.55L15.26 19.17L18.62 21.17L19.67 20.47L15.22 17.82L15.22 16.44L20.86 19.8L21.86 19.23L22.01 19.14L22.07 19.14L15.23 15.07L15.23 13.69L23.23 18.45L24.91 17.45L28.56 15.31L15.23 7.46ZM28.57 13.92L28.57 3.41L15.29 2.02L2.01 3.41L2.01 13.91L15.21 6.05L28.56 13.92L28.57 13.92Z" />
</svg>
